<?xml version="1.0" encoding="UTF-8" standalone="no"?>
<svg
   xmlns:dc="http://purl.org/dc/elements/1.1/"
   xmlns:cc="http://creativecommons.org/ns#"
   xmlns:rdf="http://www.w3.org/1999/02/22-rdf-syntax-ns#"
   xmlns:svg="http://www.w3.org/2000/svg"
   xmlns="http://www.w3.org/2000/svg"
   xmlns:sodipodi="http://sodipodi.sourceforge.net/DTD/sodipodi-0.dtd"
   xmlns:inkscape="http://www.inkscape.org/namespaces/inkscape"
   width="600"
   height="600"
   viewBox="0 0 158.75 158.75"
   version="1.1"
   id="svg1012"
   inkscape:version="1.0 (5b275a35d9, 2020-05-03)"
   sodipodi:docname="twitch.svg">
  <defs
     id="defs1006" />
  <sodipodi:namedview
     id="base"
     pagecolor="#ffffff"
     bordercolor="#666666"
     borderopacity="1.0"
     inkscape:pageopacity="0.0"
     inkscape:pageshadow="2"
     inkscape:zoom="0.98994949"
     inkscape:cx="170.7369"
     inkscape:cy="280.75851"
     inkscape:document-units="mm"
     inkscape:current-layer="layer1"
     inkscape:document-rotation="0"
     showgrid="false"
     units="px"
     inkscape:window-width="1600"
     inkscape:window-height="841"
     inkscape:window-x="1280"
     inkscape:window-y="0"
     inkscape:window-maximized="1" />
  <metadata
     id="metadata1009">
    <rdf:RDF>
      <cc:Work
         rdf:about="">
        <dc:format>image/svg+xml</dc:format>
        <dc:type
           rdf:resource="http://purl.org/dc/dcmitype/StillImage" />
        <dc:title></dc:title>
      </cc:Work>
    </rdf:RDF>
  </metadata>
  <g
     inkscape:label="Layer 1"
     inkscape:groupmode="layer"
     id="layer1"
     style="display:inline">
    <path
       id="path1579"
       style="opacity:1;fill:#ffffff;stroke-width:0"
       d="M 300.33008 0 A 300 300 0 0 0 87.867188 87.867188 A 300 300 0 0 0 87.867188 512.13281 A 300 300 0 0 0 512.13281 512.13281 A 300 300 0 0 0 512.13281 87.867188 A 300 300 0 0 0 300.33008 0 z M 144.50391 121.76367 L 480.68359 122.5625 L 480.68359 355.16797 L 377.61328 458.23828 L 300.13867 458.23828 L 261.13672 510.65039 L 209.32422 510.65039 L 209.32422 458.4707 L 118.89453 458.4707 L 118.55664 458.24609 L 118.55664 187.48633 L 144.50391 121.76367 z M 442.25391 160.89062 L 170.97656 161.12891 L 170.61328 406.73047 L 248.42578 406.73047 L 248.42578 457.49023 L 299.85938 406.05469 L 378.16992 406.05469 L 442.25391 341.97266 L 442.25391 160.89062 z M 261.32812 225.33203 L 300.15234 225.33203 L 300.15234 328.73438 L 261.32812 328.73438 L 261.32812 225.33203 z M 339.23438 225.97656 L 377.58984 225.97656 L 377.58984 328.41602 L 339.23438 328.41602 L 339.23438 225.97656 z "
       transform="scale(0.26458333)" />
  </g>
  <g
     inkscape:groupmode="layer"
     id="layer4"
     inkscape:label="Layer 2" />
</svg>
