<?xml version="1.0" encoding="UTF-8" standalone="no"?>
<svg
   xmlns:dc="http://purl.org/dc/elements/1.1/"
   xmlns:cc="http://creativecommons.org/ns#"
   xmlns:rdf="http://www.w3.org/1999/02/22-rdf-syntax-ns#"
   xmlns:svg="http://www.w3.org/2000/svg"
   xmlns="http://www.w3.org/2000/svg"
   xmlns:sodipodi="http://sodipodi.sourceforge.net/DTD/sodipodi-0.dtd"
   xmlns:inkscape="http://www.inkscape.org/namespaces/inkscape"
   width="600"
   height="600"
   viewBox="0 0 158.75 158.75"
   version="1.1"
   id="svg1012"
   inkscape:version="1.0 (5b275a35d9, 2020-05-03)"
   sodipodi:docname="youtube.svg">
  <defs
     id="defs1006" />
  <sodipodi:namedview
     id="base"
     pagecolor="#ffffff"
     bordercolor="#666666"
     borderopacity="1.0"
     inkscape:pageopacity="0.0"
     inkscape:pageshadow="2"
     inkscape:zoom="0.98994949"
     inkscape:cx="127.02869"
     inkscape:cy="340.7766"
     inkscape:document-units="mm"
     inkscape:current-layer="layer1"
     inkscape:document-rotation="0"
     showgrid="false"
     units="px"
     inkscape:window-width="1600"
     inkscape:window-height="841"
     inkscape:window-x="1280"
     inkscape:window-y="0"
     inkscape:window-maximized="1" />
  <metadata
     id="metadata1009">
    <rdf:RDF>
      <cc:Work
         rdf:about="">
        <dc:format>image/svg+xml</dc:format>
        <dc:type
           rdf:resource="http://purl.org/dc/dcmitype/StillImage" />
        <dc:title></dc:title>
      </cc:Work>
    </rdf:RDF>
  </metadata>
  <g
     inkscape:label="Layer 1"
     inkscape:groupmode="layer"
     id="layer1"
     style="display:inline">
    <path
       id="path1663"
       style="opacity:1;fill:#ffffff;stroke:none;stroke-width:3.5546;stroke-linejoin:round;stroke-miterlimit:4;stroke-dasharray:none;stroke-opacity:1"
       d="M 300 1.7773438 A 298.2227 298.2227 0 0 0 1.7773438 300 A 298.2227 298.2227 0 0 0 300 598.22266 A 298.2227 298.2227 0 0 0 598.22266 300 A 298.2227 298.2227 0 0 0 300 1.7773438 z M 289.0918 163.66797 C 297.25013 163.68874 302.25 163.75586 302.25 163.75586 C 302.25 163.75586 392.81172 165.19448 439.5 169.17383 C 486.18824 173.15318 491.42188 214.70703 491.42188 214.70703 C 491.42188 214.70703 503.22814 302.24224 492.1875 378.68555 C 487.50656 411.09556 478.54337 431.53313 426.47656 433.79688 C 378.21619 435.89515 310.84766 437.69141 310.84766 437.69141 C 310.84766 437.69141 208.67534 437.36712 166.24023 432.54688 C 123.80514 427.72658 114.03784 407.08519 110.25195 375.06641 C 106.46607 343.04761 105.87891 316.02148 105.87891 316.02148 C 108.15376 227.9026 112.14062 214.17188 112.14062 214.17188 C 122.98087 176.04645 137.94608 173.06736 180.09961 167.86719 C 211.71476 163.96706 264.61679 163.60564 289.0918 163.66797 z M 263.08203 243.63867 L 263.08203 358.76367 L 364.20898 301.11719 L 263.08203 243.63867 z "
       transform="scale(0.26458333)" />
  </g>
  <g
     inkscape:groupmode="layer"
     id="layer4"
     inkscape:label="Layer 2" />
</svg>
